<?xml version="1.0" encoding="UTF-8" standalone="no"?>
<!DOCTYPE svg PUBLIC "-//W3C//DTD SVG 1.1//EN" "http://www.w3.org/Graphics/SVG/1.1/DTD/svg11.dtd">
<svg width="100%" height="100%" viewBox="0 0 512 512" version="1.1" xmlns="http://www.w3.org/2000/svg" xmlns:xlink="http://www.w3.org/1999/xlink" xml:space="preserve" xmlns:serif="http://www.serif.com/" style="fill-rule:evenodd;clip-rule:evenodd;stroke-linejoin:round;stroke-miterlimit:2;">
    <g transform="matrix(0.732143,0,0,0.732143,-596.169,-100)">
        <path d="M1053.09,224L997.661,256L1053.09,288L1108.51,256L1053.09,224Z" style="fill:rgb(255,187,23);"/>
        <path d="M1274.79,224L1219.36,256L1274.79,288L1330.21,256L1274.79,224Z" style="fill:rgb(255,187,23);"/>
        <path d="M1274.79,288L1163.94,672L1219.36,640L1330.21,256L1274.79,288Z" style="fill:rgb(255,127,23);"/>
        <path d="M997.661,256L1108.51,640L1163.94,672L1053.09,288L997.661,256Z" style="fill:rgb(255,187,23);"/>
        <path d="M1108.51,256L1053.09,288L1163.94,672L1163.94,448.8L1108.51,256Z" style="fill:rgb(255,162,23);"/>
        <path d="M1219.36,256L1163.94,448.8L1163.94,672L1274.79,288L1219.36,256" style="fill:rgb(255,222,23);"/>
    </g>
    <g transform="matrix(1.54168,0,0,1.53075,-728.285,63.1284)">
        <path d="M538.885,253.529L528.335,226.629L521.535,226.629L536.085,261.879L541.485,261.879L556.035,226.629L549.385,226.629L538.885,253.529Z" style="fill-rule:nonzero;"/>
    </g>
    <g transform="matrix(1.54168,0,0,1.54168,-730.28,60.6505)">
        <path d="M587.985,226.629L562.035,226.629L562.035,261.629L588.235,261.629L588.235,256.129L568.185,256.129L568.185,246.729L585.735,246.729L585.735,241.229L568.185,241.229L568.185,232.129L587.985,232.129L587.985,226.629Z" style="fill-rule:nonzero;"/>
    </g>
    <g transform="matrix(1.54168,0,0,1.54168,-733.021,60.6505)">
        <path d="M625.235,261.629L615.785,248.379C617.018,248.046 618.143,247.571 619.16,246.954C620.177,246.338 621.052,245.588 621.785,244.704C622.518,243.821 623.093,242.804 623.51,241.654C623.927,240.504 624.135,239.196 624.135,237.729C624.135,236.029 623.835,234.488 623.235,233.104C622.635,231.721 621.777,230.554 620.66,229.604C619.543,228.654 618.177,227.921 616.56,227.404C614.943,226.888 613.135,226.629 611.135,226.629L595.535,226.629L595.535,261.629L601.685,261.629L601.685,249.429L609.385,249.429L617.985,261.629L625.235,261.629ZM617.885,238.079C617.885,239.879 617.235,241.313 615.935,242.379C614.635,243.446 612.885,243.979 610.685,243.979L601.685,243.979L601.685,232.229L610.635,232.229C612.935,232.229 614.718,232.721 615.985,233.704C617.252,234.688 617.885,236.146 617.885,238.079Z" style="fill-rule:nonzero;"/>
    </g>
    <g transform="matrix(1.54168,0,0,1.54168,-735.665,60.6505)">
        <path d="M646.335,232.329L657.435,232.329L657.435,226.629L629.035,226.629L629.035,232.329L640.135,232.329L640.135,261.629L646.335,261.629L646.335,232.329Z" style="fill-rule:nonzero;"/>
    </g>
    <g transform="matrix(1.54168,0,0,1.54168,-735.578,60.6505)">
        <path d="M689.885,226.629L663.935,226.629L663.935,261.629L690.135,261.629L690.135,256.129L670.085,256.129L670.085,246.729L687.635,246.729L687.635,241.229L670.085,241.229L670.085,232.129L689.885,232.129L689.885,226.629Z" style="fill-rule:nonzero;"/>
    </g>
    <g transform="matrix(1.54168,0,0,1.49058,-737.188,73.1268)">
        <path d="M727.885,256.029L723.935,252.029C722.435,253.429 720.918,254.538 719.385,255.354C717.852,256.171 716.018,256.579 713.885,256.579C712.218,256.579 710.677,256.254 709.26,255.604C707.843,254.954 706.618,254.063 705.585,252.929C704.552,251.796 703.752,250.471 703.185,248.954C702.618,247.438 702.335,245.813 702.335,244.079C702.335,242.346 702.618,240.729 703.185,239.229C703.752,237.729 704.552,236.421 705.585,235.304C706.618,234.188 707.843,233.304 709.26,232.654C710.677,232.004 712.218,231.679 713.885,231.679C715.885,231.679 717.668,232.079 719.235,232.879C720.802,233.679 722.285,234.729 723.685,236.029L727.635,231.479C726.802,230.679 725.918,229.946 724.985,229.279C724.052,228.613 723.035,228.038 721.935,227.554C720.835,227.071 719.627,226.696 718.31,226.429C716.993,226.163 715.535,226.029 713.935,226.029C711.268,226.029 708.835,226.504 706.635,227.454C704.435,228.404 702.535,229.704 700.935,231.354C699.335,233.004 698.093,234.929 697.21,237.129C696.327,239.329 695.885,241.679 695.885,244.179C695.885,246.713 696.335,249.079 697.235,251.279C698.135,253.479 699.377,255.388 700.96,257.004C702.543,258.621 704.418,259.896 706.585,260.829C708.752,261.763 711.118,262.229 713.685,262.229C715.318,262.229 716.81,262.088 718.16,261.804C719.51,261.521 720.752,261.104 721.885,260.554C723.018,260.004 724.077,259.354 725.06,258.604C726.043,257.854 726.985,256.996 727.885,256.029Z" style="fill-rule:nonzero;"/>
    </g>
    <g transform="matrix(1.54168,0,0,1.54168,-736.024,60.6505)">
        <path d="M749.135,232.329L760.235,232.329L760.235,226.629L731.835,226.629L731.835,232.329L742.935,232.329L742.935,261.629L749.135,261.629L749.135,232.329Z" style="fill-rule:nonzero;"/>
    </g>
</svg>
