<?xml version="1.0" encoding="UTF-8" standalone="no"?>
<!DOCTYPE svg PUBLIC "-//W3C//DTD SVG 1.1//EN" "http://www.w3.org/Graphics/SVG/1.1/DTD/svg11.dtd">
<svg width="100%" height="100%" viewBox="0 0 380 512" version="1.1" xmlns="http://www.w3.org/2000/svg" xmlns:xlink="http://www.w3.org/1999/xlink" xml:space="preserve" xmlns:serif="http://www.serif.com/" style="fill-rule:evenodd;clip-rule:evenodd;stroke-linejoin:round;stroke-miterlimit:2;">
    <g transform="matrix(1.16345,0,0,1.16364,-112.558,-46.5455)">
        <g transform="matrix(0.982143,0,0,0.982143,-883.154,-180)">
            <path d="M1053.09,224L997.661,256L1108.51,640L1163.94,672L1219.36,640L1330.21,256L1274.79,224L1219.36,256L1164.23,448L1108.51,256L1053.09,224Z" style="fill:rgb(255,187,23);"/>
        </g>
        <g transform="matrix(0.982143,0,0,0.982143,-883.154,-180)">
            <path d="M1274.79,288L1163.94,672L1219.36,640L1330.21,256L1274.79,288Z" style="fill:rgb(255,127,23);"/>
        </g>
        <g transform="matrix(0.982143,0,0,0.982143,-883.154,-180)">
            <path d="M1108.51,256L1052.96,287.925L1163.94,672L1163.94,449.018L1108.51,256Z" style="fill:rgb(255,162,23);"/>
        </g>
        <g transform="matrix(0.982143,0,0,0.982143,-883.154,-180)">
            <path d="M1219.43,256L1163.94,449.018L1163.94,672L1274.79,288L1219.43,256Z" style="fill:rgb(255,222,23);"/>
        </g>
    </g>
</svg>
